<svg width="24" height="16" viewBox="0 0 24 16" fill="none" xmlns="http://www.w3.org/2000/svg">
<path d="M4.31113 0C4.11039 0 3.94311 0.0999959 3.80928 0.266663L0.129047 5.26666C-0.0716929 5.53333 -0.0382362 5.93333 0.229417 6.16667L3.57508 9C3.03978 9.36667 2.6383 9.96667 2.6383 10.6667C2.6383 11.7667 3.54163 12.6667 4.6457 12.6667C4.81298 12.6667 4.94681 12.6333 5.11409 12.6C5.34829 13.2333 5.95051 13.6667 6.6531 13.6667H6.68655C6.85384 14.4333 7.52297 15 8.32593 15C8.49321 15 8.62704 14.9667 8.76087 14.9333C8.99506 15.5667 9.59728 16 10.3333 16C10.6679 16 10.969 15.9 11.2367 15.7333C11.5712 15.9333 11.9393 16 12.3407 16C12.9095 16 13.3779 15.7333 13.7125 15.4C13.9467 15.1667 14.1139 14.9333 14.2478 14.6333C14.3816 14.6667 14.5489 14.7 14.6827 14.7C15.4187 14.7 16.021 14.2667 16.3221 13.6667C16.4559 13.7 16.5563 13.7 16.6901 13.7C17.4596 13.7 18.0953 13.2333 18.3629 12.5667C18.6306 12.6667 18.8648 12.7 19.099 12.7C19.5674 12.7 20.0692 12.5333 20.4372 12.2C20.8053 11.8667 21.006 11.3333 21.006 10.7667C21.006 10.0667 20.6045 9.56666 20.1027 9.19999L23.7495 6.19999C24.0171 5.96666 24.084 5.56665 23.8833 5.29999L20.203 0.299988C20.0692 0.0999878 19.8016 -8.13852e-06 19.5674 0.0333252C19.5339 0.0333252 19.5005 0.0666504 19.467 0.0666504C17.4931 0.733317 16.3555 0.699992 14.0136 0.699992C13.2775 0.699992 12.6084 0.899996 12.0062 1.26666C11.4039 0.899996 10.7348 0.699992 9.99876 0.699992C7.6568 0.699992 6.51927 0.733317 4.54533 0.0666504C4.47841 -1.6277e-05 4.37804 0 4.31113 0ZM4.61224 1.43333C6.48581 2 7.89099 2 10.0322 2C10.4002 2 10.7014 2.06667 10.969 2.16667L8.52667 4.89998C8.35939 5.06665 8.32593 5.33332 8.39284 5.56665C8.62704 6.23332 9.09543 6.66666 9.56383 6.86666C10.0322 7.06666 10.4672 7.03333 10.7683 7.03333C11.1697 6.99999 11.4374 6.83333 11.7385 6.66667C12.0396 6.5 12.3742 6.26665 12.6753 6.06665C13.0433 5.79998 13.1771 5.69999 13.3779 5.53333L19.3332 10.2333C19.3332 10.2333 19.3666 10.2333 19.3666 10.2667C19.5674 10.4 19.7347 10.7667 19.7681 10.8C19.7681 11.0667 19.7012 11.1667 19.6008 11.2333C19.5005 11.3 19.3666 11.3667 19.1993 11.3667C19.099 11.3667 18.8648 11.2667 18.8648 11.3C18.9652 11.3667 18.7979 11.2667 18.664 11.1667C18.5302 11.0667 18.3629 10.9 18.1287 10.7667C17.6938 10.4333 17.1585 9.99998 16.6232 9.56665C15.5526 8.69998 14.482 7.86666 14.482 7.86666C14.1808 7.63333 13.7794 7.66665 13.5452 7.96665C13.311 8.26665 13.3444 8.66665 13.6455 8.89998C13.6455 8.89998 14.7162 9.73333 15.7868 10.6C16.3221 11 16.8239 11.4333 17.2589 11.7667C17.2589 11.8 17.2589 11.8333 17.2589 11.8667C17.2589 12.1667 17.0247 12.4 16.757 12.4C16.6566 12.4 16.5563 12.3667 16.4894 12.3C16.5563 12.3333 16.4559 12.2667 16.3555 12.2C16.2552 12.1333 16.1548 12.0333 15.9875 11.9C15.6864 11.6667 15.3184 11.3667 14.9504 11.0667C14.2143 10.4667 13.5117 9.86666 13.5117 9.86666C13.3779 9.73333 13.1771 9.69999 13.0099 9.69999C12.6418 9.73333 12.3742 10.0667 12.4076 10.4333C12.4076 10.6 12.508 10.8 12.6753 10.9C12.6753 10.9 13.4113 11.5 14.1474 12.1C14.5154 12.4 14.8834 12.7 15.1845 12.9333C15.218 12.9667 15.2515 12.9667 15.2515 13C15.1845 13.2333 14.9838 13.4 14.7831 13.4C14.6827 13.4 14.5823 13.3667 14.5154 13.3C14.5154 13.3 13.0433 12.2333 12.2069 11.5333C12.0731 11.4 11.8723 11.3667 11.7051 11.3667C11.337 11.4 11.0694 11.7333 11.1028 12.1C11.1028 12.2667 11.2032 12.4667 11.3705 12.5667C11.9727 13.0333 12.6418 13.5333 13.1437 13.9333V14.0667C13.1437 14.1667 13.0768 14.3667 12.9095 14.5C12.7422 14.6333 12.5749 14.7333 12.4746 14.7333C12.2738 14.7333 12.2069 14.7333 12.1065 14.7C12.14 14.6 12.14 14.5 12.14 14.4C12.14 13.5 11.3705 12.7333 10.4672 12.7333C10.2999 12.7333 10.166 12.7667 10.0322 12.8C9.79802 12.1667 9.1958 11.7333 8.45976 11.7333H8.4263C8.25902 10.9667 7.58988 10.4 6.78692 10.4H6.75347C6.61964 9.73332 6.15125 9.16665 5.54903 8.89998L1.66805 5.63332L4.61224 1.43333ZM19.467 1.43333L22.5116 5.56665L19.099 8.33333L13.7794 4.16667C13.5452 3.96667 13.1771 3.96667 12.943 4.16667C12.943 4.16667 12.4746 4.56666 11.9058 4.93333C11.6381 5.13333 11.337 5.33332 11.0694 5.46665C10.8017 5.59999 10.5675 5.66667 10.6344 5.66667C10.4672 5.66667 10.233 5.66666 10.0657 5.6C9.96531 5.56666 9.89839 5.5 9.83148 5.43333L12.3407 2.66667C12.508 2.6 12.6418 2.49999 12.7088 2.36666C13.1437 2.09999 13.5117 2 14.047 2C16.1882 2 17.56 2 19.467 1.43333ZM4.67915 10C5.04718 10 5.34829 10.3 5.34829 10.6667C5.34829 11.0333 5.04718 11.3333 4.67915 11.3333C4.31113 11.3333 4.01002 11.0333 4.01002 10.6667C4.01002 10.3 4.31113 10 4.67915 10ZM6.68655 11.6667C6.88729 11.6667 7.02112 11.8 7.02112 12C7.02112 12.2 6.88729 12.3333 6.68655 12.3333C6.48581 12.3333 6.35199 12.2 6.35199 12C6.35199 11.8 6.48581 11.6667 6.68655 11.6667ZM8.35939 13C8.56013 13 8.69395 13.1333 8.69395 13.3333C8.69395 13.5333 8.56013 13.6667 8.35939 13.6667C8.15865 13.6667 8.02482 13.5333 8.02482 13.3333C8.02482 13.1333 8.15865 13 8.35939 13ZM10.3668 14C10.5675 14 10.7014 14.1333 10.7014 14.3333C10.7014 14.5333 10.5675 14.6667 10.3668 14.6667C10.166 14.6667 10.0322 14.5333 10.0322 14.3333C10.0322 14.1333 10.166 14 10.3668 14Z" fill="#78BE21"/>
</svg>
