<svg width="362" height="236" viewBox="0 0 362 236" fill="none" xmlns="http://www.w3.org/2000/svg">
<g id="Logo">
<g id="Logo-01">
<g id="Frame">
<path id="Vector" fill-rule="evenodd" clip-rule="evenodd" d="M225.505 92.7671C225.505 119.364 203.852 141.016 177.063 141.016C150.36 141.016 128.621 119.449 128.621 92.7671C128.621 66.1703 150.275 44.5178 177.063 44.5178C203.766 44.5178 225.505 66.0851 225.505 92.7671Z" fill="#21317D"/>
<path id="Vector_2" d="M133.671 92.7671C133.671 116.636 153.099 135.987 177.063 135.987C201.027 135.987 220.455 116.636 220.455 92.7671C220.455 68.8982 201.027 49.5473 177.063 49.5473C153.099 49.462 133.671 68.8982 133.671 92.7671Z" fill="url(#paint0_radial)"/>
<g id="Group 44">
<g id="Vector_3">
<mask id="path-3-outside-1" maskUnits="userSpaceOnUse" x="50.3071" y="151.12" width="14" height="37" fill="black">
<rect fill="white" x="50.3071" y="151.12" width="14" height="37"/>
<path d="M58.3691 186.86C56.5444 186.959 54.7396 186.442 53.2458 185.392C52.6217 184.93 52.1195 184.324 51.7828 183.625C51.446 182.927 51.2849 182.157 51.3131 181.383V153.014C51.2982 152.894 51.3109 152.772 51.3504 152.658C51.3898 152.543 51.4549 152.439 51.5407 152.354C51.6265 152.268 51.7307 152.203 51.8454 152.164C51.9602 152.124 52.0824 152.112 52.2028 152.127H57.3567C57.9396 152.127 58.2157 152.433 58.2157 153.014V179.179C58.2157 180.342 58.7372 180.924 59.811 180.924C60.2661 180.942 60.7215 180.891 61.1608 180.771C61.7744 180.771 62.1118 180.954 62.1425 181.505L62.6027 185.33C62.6248 185.442 62.6227 185.557 62.5965 185.667C62.5703 185.778 62.5207 185.882 62.4509 185.972C62.3811 186.062 62.2929 186.136 62.192 186.189C62.0912 186.242 61.9802 186.272 61.8664 186.279C60.7375 186.651 59.5579 186.847 58.3691 186.86Z"/>
</mask>
<path d="M58.3691 186.86C56.5444 186.959 54.7396 186.442 53.2458 185.392C52.6217 184.93 52.1195 184.324 51.7828 183.625C51.446 182.927 51.2849 182.157 51.3131 181.383V153.014C51.2982 152.894 51.3109 152.772 51.3504 152.658C51.3898 152.543 51.4549 152.439 51.5407 152.354C51.6265 152.268 51.7307 152.203 51.8454 152.164C51.9602 152.124 52.0824 152.112 52.2028 152.127H57.3567C57.9396 152.127 58.2157 152.433 58.2157 153.014V179.179C58.2157 180.342 58.7372 180.924 59.811 180.924C60.2661 180.942 60.7215 180.891 61.1608 180.771C61.7744 180.771 62.1118 180.954 62.1425 181.505L62.6027 185.33C62.6248 185.442 62.6227 185.557 62.5965 185.667C62.5703 185.778 62.5207 185.882 62.4509 185.972C62.3811 186.062 62.2929 186.136 62.192 186.189C62.0912 186.242 61.9802 186.272 61.8664 186.279C60.7375 186.651 59.5579 186.847 58.3691 186.86Z" fill="white"/>
<path d="M58.3691 186.86C56.5444 186.959 54.7396 186.442 53.2458 185.392C52.6217 184.93 52.1195 184.324 51.7828 183.625C51.446 182.927 51.2849 182.157 51.3131 181.383V153.014C51.2982 152.894 51.3109 152.772 51.3504 152.658C51.3898 152.543 51.4549 152.439 51.5407 152.354C51.6265 152.268 51.7307 152.203 51.8454 152.164C51.9602 152.124 52.0824 152.112 52.2028 152.127H57.3567C57.9396 152.127 58.2157 152.433 58.2157 153.014V179.179C58.2157 180.342 58.7372 180.924 59.811 180.924C60.2661 180.942 60.7215 180.891 61.1608 180.771C61.7744 180.771 62.1118 180.954 62.1425 181.505L62.6027 185.33C62.6248 185.442 62.6227 185.557 62.5965 185.667C62.5703 185.778 62.5207 185.882 62.4509 185.972C62.3811 186.062 62.2929 186.136 62.192 186.189C62.0912 186.242 61.9802 186.272 61.8664 186.279C60.7375 186.651 59.5579 186.847 58.3691 186.86Z" stroke="#0E3278" stroke-width="2" mask="url(#path-3-outside-1)"/>
</g>
<g id="Vector_4">
<mask id="path-4-outside-2" maskUnits="userSpaceOnUse" x="64.3998" y="162.073" width="28" height="26" fill="black">
<rect fill="white" x="64.3998" y="162.073" width="28" height="26"/>
<path d="M87.3599 183.586C84.7702 185.72 81.5158 186.888 78.1565 186.888C74.7971 186.888 71.5428 185.72 68.953 183.586C66.6768 181.294 65.3998 178.198 65.3998 174.971C65.3998 171.745 66.6768 168.649 68.953 166.357C71.5478 164.233 74.8002 163.073 78.1565 163.073C81.5127 163.073 84.7651 164.233 87.3599 166.357C89.5836 168.67 90.8252 171.751 90.8252 174.956C90.8252 178.161 89.5836 181.242 87.3599 183.555V183.586ZM73.8002 179.546C75.002 180.632 76.5656 181.234 78.1871 181.234C79.8087 181.234 81.3723 180.632 82.5741 179.546C83.6618 178.299 84.2609 176.701 84.2609 175.048C84.2609 173.394 83.6618 171.797 82.5741 170.549C81.3723 169.463 79.8087 168.862 78.1871 168.862C76.5656 168.862 75.002 169.463 73.8002 170.549C72.7125 171.797 72.1134 173.394 72.1134 175.048C72.1134 176.701 72.7125 178.299 73.8002 179.546Z"/>
</mask>
<path d="M87.3599 183.586C84.7702 185.72 81.5158 186.888 78.1565 186.888C74.7971 186.888 71.5428 185.72 68.953 183.586C66.6768 181.294 65.3998 178.198 65.3998 174.971C65.3998 171.745 66.6768 168.649 68.953 166.357C71.5478 164.233 74.8002 163.073 78.1565 163.073C81.5127 163.073 84.7651 164.233 87.3599 166.357C89.5836 168.67 90.8252 171.751 90.8252 174.956C90.8252 178.161 89.5836 181.242 87.3599 183.555V183.586ZM73.8002 179.546C75.002 180.632 76.5656 181.234 78.1871 181.234C79.8087 181.234 81.3723 180.632 82.5741 179.546C83.6618 178.299 84.2609 176.701 84.2609 175.048C84.2609 173.394 83.6618 171.797 82.5741 170.549C81.3723 169.463 79.8087 168.862 78.1871 168.862C76.5656 168.862 75.002 169.463 73.8002 170.549C72.7125 171.797 72.1134 173.394 72.1134 175.048C72.1134 176.701 72.7125 178.299 73.8002 179.546Z" fill="white"/>
<path d="M87.3599 183.586C84.7702 185.72 81.5158 186.888 78.1565 186.888C74.7971 186.888 71.5428 185.72 68.953 183.586C66.6768 181.294 65.3998 178.198 65.3998 174.971C65.3998 171.745 66.6768 168.649 68.953 166.357C71.5478 164.233 74.8002 163.073 78.1565 163.073C81.5127 163.073 84.7651 164.233 87.3599 166.357C89.5836 168.67 90.8252 171.751 90.8252 174.956C90.8252 178.161 89.5836 181.242 87.3599 183.555V183.586ZM73.8002 179.546C75.002 180.632 76.5656 181.234 78.1871 181.234C79.8087 181.234 81.3723 180.632 82.5741 179.546C83.6618 178.299 84.2609 176.701 84.2609 175.048C84.2609 173.394 83.6618 171.797 82.5741 170.549C81.3723 169.463 79.8087 168.862 78.1871 168.862C76.5656 168.862 75.002 169.463 73.8002 170.549C72.7125 171.797 72.1134 173.394 72.1134 175.048C72.1134 176.701 72.7125 178.299 73.8002 179.546Z" stroke="#0E3278" stroke-width="2" mask="url(#path-4-outside-2)"/>
</g>
<g id="Vector_5">
<mask id="path-5-outside-3" maskUnits="userSpaceOnUse" x="93.5571" y="162.136" width="28" height="37" fill="black">
<rect fill="white" x="93.5571" y="162.136" width="28" height="37"/>
<path d="M119.204 163.847C119.787 163.847 120.063 164.153 120.063 164.735V186.677C120.116 188.158 119.839 189.632 119.25 190.992C118.661 192.353 117.775 193.565 116.658 194.542C114.177 196.652 110.987 197.745 107.73 197.602C104.789 197.705 101.886 196.904 99.4164 195.307C98.3617 194.616 97.4607 193.716 96.7694 192.663C96.078 191.61 95.6111 190.427 95.3976 189.186C95.3976 188.574 95.3976 188.299 96.2259 188.299H101.38C101.599 188.306 101.811 188.377 101.99 188.502C102.17 188.626 102.309 188.8 102.392 189.003C102.726 189.932 103.393 190.706 104.264 191.175C105.325 191.722 106.506 191.995 107.7 191.971C108.42 192.01 109.141 191.906 109.82 191.665C110.5 191.423 111.124 191.049 111.657 190.563C112.144 190.056 112.522 189.455 112.77 188.798C113.018 188.14 113.13 187.44 113.099 186.738V184.81C111.254 186.164 109.008 186.864 106.718 186.799C105.115 186.857 103.517 186.592 102.02 186.019C100.523 185.445 99.1573 184.576 98.0052 183.464C95.7935 181.181 94.5571 178.131 94.5571 174.956C94.5571 171.782 95.7935 168.731 98.0052 166.449C99.1629 165.346 100.53 164.485 102.027 163.917C103.523 163.35 105.118 163.087 106.718 163.143C109.074 163.081 111.38 163.827 113.252 165.255V164.765C113.238 164.648 113.25 164.529 113.288 164.417C113.326 164.305 113.388 164.203 113.47 164.118C113.553 164.033 113.653 163.968 113.764 163.926C113.875 163.884 113.993 163.868 114.111 163.878L119.204 163.847ZM107.301 181.352C108.091 181.376 108.877 181.227 109.603 180.915C110.33 180.603 110.978 180.136 111.504 179.546C112.524 178.233 113.077 176.618 113.077 174.956C113.077 173.294 112.524 171.68 111.504 170.366C110.98 169.784 110.335 169.324 109.615 169.017C108.894 168.71 108.115 168.565 107.331 168.591C106.532 168.566 105.737 168.714 105 169.026C104.264 169.338 103.604 169.805 103.067 170.396C101.937 171.653 101.343 173.3 101.411 174.987C101.355 176.657 101.936 178.286 103.036 179.546C103.575 180.136 104.235 180.602 104.971 180.914C105.707 181.226 106.502 181.375 107.301 181.352Z"/>
</mask>
<path d="M119.204 163.847C119.787 163.847 120.063 164.153 120.063 164.735V186.677C120.116 188.158 119.839 189.632 119.25 190.992C118.661 192.353 117.775 193.565 116.658 194.542C114.177 196.652 110.987 197.745 107.73 197.602C104.789 197.705 101.886 196.904 99.4164 195.307C98.3617 194.616 97.4607 193.716 96.7694 192.663C96.078 191.61 95.6111 190.427 95.3976 189.186C95.3976 188.574 95.3976 188.299 96.2259 188.299H101.38C101.599 188.306 101.811 188.377 101.99 188.502C102.17 188.626 102.309 188.8 102.392 189.003C102.726 189.932 103.393 190.706 104.264 191.175C105.325 191.722 106.506 191.995 107.7 191.971C108.42 192.01 109.141 191.906 109.82 191.665C110.5 191.423 111.124 191.049 111.657 190.563C112.144 190.056 112.522 189.455 112.77 188.798C113.018 188.14 113.13 187.44 113.099 186.738V184.81C111.254 186.164 109.008 186.864 106.718 186.799C105.115 186.857 103.517 186.592 102.02 186.019C100.523 185.445 99.1573 184.576 98.0052 183.464C95.7935 181.181 94.5571 178.131 94.5571 174.956C94.5571 171.782 95.7935 168.731 98.0052 166.449C99.1629 165.346 100.53 164.485 102.027 163.917C103.523 163.35 105.118 163.087 106.718 163.143C109.074 163.081 111.38 163.827 113.252 165.255V164.765C113.238 164.648 113.25 164.529 113.288 164.417C113.326 164.305 113.388 164.203 113.47 164.118C113.553 164.033 113.653 163.968 113.764 163.926C113.875 163.884 113.993 163.868 114.111 163.878L119.204 163.847ZM107.301 181.352C108.091 181.376 108.877 181.227 109.603 180.915C110.33 180.603 110.978 180.136 111.504 179.546C112.524 178.233 113.077 176.618 113.077 174.956C113.077 173.294 112.524 171.68 111.504 170.366C110.98 169.784 110.335 169.324 109.615 169.017C108.894 168.71 108.115 168.565 107.331 168.591C106.532 168.566 105.737 168.714 105 169.026C104.264 169.338 103.604 169.805 103.067 170.396C101.937 171.653 101.343 173.3 101.411 174.987C101.355 176.657 101.936 178.286 103.036 179.546C103.575 180.136 104.235 180.602 104.971 180.914C105.707 181.226 106.502 181.375 107.301 181.352Z" fill="white"/>
<path d="M119.204 163.847C119.787 163.847 120.063 164.153 120.063 164.735V186.677C120.116 188.158 119.839 189.632 119.25 190.992C118.661 192.353 117.775 193.565 116.658 194.542C114.177 196.652 110.987 197.745 107.73 197.602C104.789 197.705 101.886 196.904 99.4164 195.307C98.3617 194.616 97.4607 193.716 96.7694 192.663C96.078 191.61 95.6111 190.427 95.3976 189.186C95.3976 188.574 95.3976 188.299 96.2259 188.299H101.38C101.599 188.306 101.811 188.377 101.99 188.502C102.17 188.626 102.309 188.8 102.392 189.003C102.726 189.932 103.393 190.706 104.264 191.175C105.325 191.722 106.506 191.995 107.7 191.971C108.42 192.01 109.141 191.906 109.82 191.665C110.5 191.423 111.124 191.049 111.657 190.563C112.144 190.056 112.522 189.455 112.77 188.798C113.018 188.14 113.13 187.44 113.099 186.738V184.81C111.254 186.164 109.008 186.864 106.718 186.799C105.115 186.857 103.517 186.592 102.02 186.019C100.523 185.445 99.1573 184.576 98.0052 183.464C95.7935 181.181 94.5571 178.131 94.5571 174.956C94.5571 171.782 95.7935 168.731 98.0052 166.449C99.1629 165.346 100.53 164.485 102.027 163.917C103.523 163.35 105.118 163.087 106.718 163.143C109.074 163.081 111.38 163.827 113.252 165.255V164.765C113.238 164.648 113.25 164.529 113.288 164.417C113.326 164.305 113.388 164.203 113.47 164.118C113.553 164.033 113.653 163.968 113.764 163.926C113.875 163.884 113.993 163.868 114.111 163.878L119.204 163.847ZM107.301 181.352C108.091 181.376 108.877 181.227 109.603 180.915C110.33 180.603 110.978 180.136 111.504 179.546C112.524 178.233 113.077 176.618 113.077 174.956C113.077 173.294 112.524 171.68 111.504 170.366C110.98 169.784 110.335 169.324 109.615 169.017C108.894 168.71 108.115 168.565 107.331 168.591C106.532 168.566 105.737 168.714 105 169.026C104.264 169.338 103.604 169.805 103.067 170.396C101.937 171.653 101.343 173.3 101.411 174.987C101.355 176.657 101.936 178.286 103.036 179.546C103.575 180.136 104.235 180.602 104.971 180.914C105.707 181.226 106.502 181.375 107.301 181.352Z" stroke="#0E3278" stroke-width="2" mask="url(#path-5-outside-3)"/>
</g>
<g id="Vector_6">
<mask id="path-6-outside-4" maskUnits="userSpaceOnUse" x="123.663" y="162.082" width="28" height="26" fill="black">
<rect fill="white" x="123.663" y="162.082" width="28" height="26"/>
<path d="M146.538 183.586C143.943 185.709 140.691 186.87 137.335 186.87C133.978 186.87 130.726 185.709 128.131 183.586C125.905 181.268 124.663 178.181 124.663 174.971C124.663 171.761 125.905 168.675 128.131 166.357C130.728 164.239 133.98 163.082 137.335 163.082C140.689 163.082 143.941 164.239 146.538 166.357C148.762 168.67 150.003 171.751 150.003 174.956C150.003 178.161 148.762 181.242 146.538 183.555V183.586ZM132.948 179.546C133.536 180.105 134.229 180.541 134.987 180.83C135.746 181.119 136.554 181.254 137.365 181.23C138.172 181.25 138.974 181.113 139.727 180.824C140.48 180.535 141.168 180.101 141.752 179.546C142.822 178.291 143.41 176.696 143.41 175.048C143.41 173.4 142.822 171.805 141.752 170.549C141.168 169.995 140.48 169.561 139.727 169.272C138.974 168.983 138.172 168.845 137.365 168.866C136.554 168.841 135.746 168.977 134.987 169.266C134.229 169.555 133.536 169.991 132.948 170.549C131.878 171.805 131.29 173.4 131.29 175.048C131.29 176.696 131.878 178.291 132.948 179.546Z"/>
</mask>
<path d="M146.538 183.586C143.943 185.709 140.691 186.87 137.335 186.87C133.978 186.87 130.726 185.709 128.131 183.586C125.905 181.268 124.663 178.181 124.663 174.971C124.663 171.761 125.905 168.675 128.131 166.357C130.728 164.239 133.98 163.082 137.335 163.082C140.689 163.082 143.941 164.239 146.538 166.357C148.762 168.67 150.003 171.751 150.003 174.956C150.003 178.161 148.762 181.242 146.538 183.555V183.586ZM132.948 179.546C133.536 180.105 134.229 180.541 134.987 180.83C135.746 181.119 136.554 181.254 137.365 181.23C138.172 181.25 138.974 181.113 139.727 180.824C140.48 180.535 141.168 180.101 141.752 179.546C142.822 178.291 143.41 176.696 143.41 175.048C143.41 173.4 142.822 171.805 141.752 170.549C141.168 169.995 140.48 169.561 139.727 169.272C138.974 168.983 138.172 168.845 137.365 168.866C136.554 168.841 135.746 168.977 134.987 169.266C134.229 169.555 133.536 169.991 132.948 170.549C131.878 171.805 131.29 173.4 131.29 175.048C131.29 176.696 131.878 178.291 132.948 179.546Z" fill="white"/>
<path d="M146.538 183.586C143.943 185.709 140.691 186.87 137.335 186.87C133.978 186.87 130.726 185.709 128.131 183.586C125.905 181.268 124.663 178.181 124.663 174.971C124.663 171.761 125.905 168.675 128.131 166.357C130.728 164.239 133.98 163.082 137.335 163.082C140.689 163.082 143.941 164.239 146.538 166.357C148.762 168.67 150.003 171.751 150.003 174.956C150.003 178.161 148.762 181.242 146.538 183.555V183.586ZM132.948 179.546C133.536 180.105 134.229 180.541 134.987 180.83C135.746 181.119 136.554 181.254 137.365 181.23C138.172 181.25 138.974 181.113 139.727 180.824C140.48 180.535 141.168 180.101 141.752 179.546C142.822 178.291 143.41 176.696 143.41 175.048C143.41 173.4 142.822 171.805 141.752 170.549C141.168 169.995 140.48 169.561 139.727 169.272C138.974 168.983 138.172 168.845 137.365 168.866C136.554 168.841 135.746 168.977 134.987 169.266C134.229 169.555 133.536 169.991 132.948 170.549C131.878 171.805 131.29 173.4 131.29 175.048C131.29 176.696 131.878 178.291 132.948 179.546Z" stroke="#0E3278" stroke-width="2" mask="url(#path-6-outside-4)"/>
</g>
<g id="Vector_7">
<mask id="path-7-outside-5" maskUnits="userSpaceOnUse" x="153.056" y="151.19" width="14" height="37" fill="black">
<rect fill="white" x="153.056" y="151.19" width="14" height="37"/>
<path d="M161.08 158.645C160.269 159.353 159.228 159.743 158.15 159.743C157.072 159.743 156.031 159.353 155.22 158.645C154.852 158.299 154.559 157.881 154.359 157.418C154.159 156.955 154.056 156.456 154.056 155.952C154.056 155.448 154.159 154.949 154.359 154.485C154.559 154.022 154.852 153.605 155.22 153.259C156.039 152.568 157.077 152.19 158.15 152.19C159.222 152.19 160.26 152.568 161.08 153.259C161.447 153.605 161.74 154.022 161.94 154.485C162.141 154.949 162.244 155.448 162.244 155.952C162.244 156.456 162.141 156.955 161.94 157.418C161.74 157.881 161.447 158.299 161.08 158.645ZM161.724 186.86C159.9 186.95 158.098 186.433 156.601 185.392C155.986 184.923 155.492 184.315 155.162 183.617C154.831 182.92 154.672 182.154 154.698 181.383V164.735C154.684 164.615 154.696 164.493 154.736 164.378C154.775 164.264 154.84 164.16 154.926 164.074C155.012 163.989 155.116 163.924 155.231 163.884C155.346 163.845 155.468 163.832 155.588 163.847H160.742C161.325 163.847 161.601 164.153 161.601 164.735V179.179C161.601 180.342 162.123 180.924 163.166 180.924C163.631 180.94 164.096 180.889 164.546 180.771C165.16 180.771 165.497 180.954 165.528 181.505L165.988 185.33C166.01 185.442 166.008 185.557 165.982 185.667C165.956 185.778 165.906 185.882 165.836 185.972C165.767 186.062 165.678 186.136 165.577 186.189C165.477 186.242 165.366 186.272 165.252 186.279C164.113 186.653 162.923 186.849 161.724 186.86Z"/>
</mask>
<path d="M161.08 158.645C160.269 159.353 159.228 159.743 158.15 159.743C157.072 159.743 156.031 159.353 155.22 158.645C154.852 158.299 154.559 157.881 154.359 157.418C154.159 156.955 154.056 156.456 154.056 155.952C154.056 155.448 154.159 154.949 154.359 154.485C154.559 154.022 154.852 153.605 155.22 153.259C156.039 152.568 157.077 152.19 158.15 152.19C159.222 152.19 160.26 152.568 161.08 153.259C161.447 153.605 161.74 154.022 161.94 154.485C162.141 154.949 162.244 155.448 162.244 155.952C162.244 156.456 162.141 156.955 161.94 157.418C161.74 157.881 161.447 158.299 161.08 158.645ZM161.724 186.86C159.9 186.95 158.098 186.433 156.601 185.392C155.986 184.923 155.492 184.315 155.162 183.617C154.831 182.92 154.672 182.154 154.698 181.383V164.735C154.684 164.615 154.696 164.493 154.736 164.378C154.775 164.264 154.84 164.16 154.926 164.074C155.012 163.989 155.116 163.924 155.231 163.884C155.346 163.845 155.468 163.832 155.588 163.847H160.742C161.325 163.847 161.601 164.153 161.601 164.735V179.179C161.601 180.342 162.123 180.924 163.166 180.924C163.631 180.94 164.096 180.889 164.546 180.771C165.16 180.771 165.497 180.954 165.528 181.505L165.988 185.33C166.01 185.442 166.008 185.557 165.982 185.667C165.956 185.778 165.906 185.882 165.836 185.972C165.767 186.062 165.678 186.136 165.577 186.189C165.477 186.242 165.366 186.272 165.252 186.279C164.113 186.653 162.923 186.849 161.724 186.86Z" fill="white"/>
<path d="M161.08 158.645C160.269 159.353 159.228 159.743 158.15 159.743C157.072 159.743 156.031 159.353 155.22 158.645C154.852 158.299 154.559 157.881 154.359 157.418C154.159 156.955 154.056 156.456 154.056 155.952C154.056 155.448 154.159 154.949 154.359 154.485C154.559 154.022 154.852 153.605 155.22 153.259C156.039 152.568 157.077 152.19 158.15 152.19C159.222 152.19 160.26 152.568 161.08 153.259C161.447 153.605 161.74 154.022 161.94 154.485C162.141 154.949 162.244 155.448 162.244 155.952C162.244 156.456 162.141 156.955 161.94 157.418C161.74 157.881 161.447 158.299 161.08 158.645ZM161.724 186.86C159.9 186.95 158.098 186.433 156.601 185.392C155.986 184.923 155.492 184.315 155.162 183.617C154.831 182.92 154.672 182.154 154.698 181.383V164.735C154.684 164.615 154.696 164.493 154.736 164.378C154.775 164.264 154.84 164.16 154.926 164.074C155.012 163.989 155.116 163.924 155.231 163.884C155.346 163.845 155.468 163.832 155.588 163.847H160.742C161.325 163.847 161.601 164.153 161.601 164.735V179.179C161.601 180.342 162.123 180.924 163.166 180.924C163.631 180.94 164.096 180.889 164.546 180.771C165.16 180.771 165.497 180.954 165.528 181.505L165.988 185.33C166.01 185.442 166.008 185.557 165.982 185.667C165.956 185.778 165.906 185.882 165.836 185.972C165.767 186.062 165.678 186.136 165.577 186.189C165.477 186.242 165.366 186.272 165.252 186.279C164.113 186.653 162.923 186.849 161.724 186.86Z" stroke="#0E3278" stroke-width="2" mask="url(#path-7-outside-5)"/>
</g>
<g id="Vector_8">
<mask id="path-8-outside-6" maskUnits="userSpaceOnUse" x="166.796" y="162.091" width="32" height="36" fill="black">
<rect fill="white" x="166.796" y="162.091" width="32" height="36"/>
<path d="M184.947 163.113C186.557 163.049 188.163 163.309 189.67 163.877C191.178 164.445 192.555 165.309 193.721 166.418C195.89 168.74 197.097 171.797 197.097 174.971C197.097 178.146 195.89 181.202 193.721 183.525C192.561 184.644 191.185 185.516 189.677 186.09C188.169 186.663 186.56 186.925 184.947 186.86C182.65 186.911 180.399 186.213 178.535 184.871V195.919C178.535 196.5 178.229 196.776 177.646 196.776H172.492C172.374 196.798 172.253 196.791 172.139 196.755C172.024 196.72 171.921 196.658 171.836 196.573C171.751 196.489 171.689 196.385 171.653 196.271C171.618 196.157 171.611 196.036 171.633 195.919V170.825C171.669 170.579 171.647 170.329 171.569 170.093C171.491 169.858 171.358 169.644 171.182 169.468C171.007 169.293 170.792 169.161 170.556 169.083C170.32 169.005 170.069 168.983 169.823 169.019H168.81C168.136 169.019 167.798 168.774 167.798 168.285V164.674C167.782 164.45 167.843 164.228 167.972 164.044C168.1 163.86 168.288 163.726 168.504 163.664C169.565 163.279 170.688 163.092 171.817 163.113C172.943 163.013 174.073 163.252 175.062 163.797C176.051 164.342 176.855 165.169 177.37 166.173C178.358 165.176 179.539 164.39 180.842 163.864C182.145 163.338 183.542 163.082 184.947 163.113ZM180.161 179.546C180.708 180.117 181.365 180.571 182.093 180.881C182.821 181.191 183.604 181.351 184.395 181.351C185.186 181.351 185.969 181.191 186.697 180.881C187.424 180.571 188.081 180.117 188.629 179.546C189.781 178.265 190.386 176.585 190.316 174.864C190.396 173.142 189.789 171.459 188.629 170.182C188.081 169.612 187.424 169.158 186.697 168.848C185.969 168.538 185.186 168.378 184.395 168.378C183.604 168.378 182.821 168.538 182.093 168.848C181.365 169.158 180.708 169.612 180.161 170.182C179.045 171.481 178.464 173.155 178.535 174.864C178.473 176.573 179.053 178.243 180.161 179.546Z"/>
</mask>
<path d="M184.947 163.113C186.557 163.049 188.163 163.309 189.67 163.877C191.178 164.445 192.555 165.309 193.721 166.418C195.89 168.74 197.097 171.797 197.097 174.971C197.097 178.146 195.89 181.202 193.721 183.525C192.561 184.644 191.185 185.516 189.677 186.09C188.169 186.663 186.56 186.925 184.947 186.86C182.65 186.911 180.399 186.213 178.535 184.871V195.919C178.535 196.5 178.229 196.776 177.646 196.776H172.492C172.374 196.798 172.253 196.791 172.139 196.755C172.024 196.72 171.921 196.658 171.836 196.573C171.751 196.489 171.689 196.385 171.653 196.271C171.618 196.157 171.611 196.036 171.633 195.919V170.825C171.669 170.579 171.647 170.329 171.569 170.093C171.491 169.858 171.358 169.644 171.182 169.468C171.007 169.293 170.792 169.161 170.556 169.083C170.32 169.005 170.069 168.983 169.823 169.019H168.81C168.136 169.019 167.798 168.774 167.798 168.285V164.674C167.782 164.45 167.843 164.228 167.972 164.044C168.1 163.86 168.288 163.726 168.504 163.664C169.565 163.279 170.688 163.092 171.817 163.113C172.943 163.013 174.073 163.252 175.062 163.797C176.051 164.342 176.855 165.169 177.37 166.173C178.358 165.176 179.539 164.39 180.842 163.864C182.145 163.338 183.542 163.082 184.947 163.113ZM180.161 179.546C180.708 180.117 181.365 180.571 182.093 180.881C182.821 181.191 183.604 181.351 184.395 181.351C185.186 181.351 185.969 181.191 186.697 180.881C187.424 180.571 188.081 180.117 188.629 179.546C189.781 178.265 190.386 176.585 190.316 174.864C190.396 173.142 189.789 171.459 188.629 170.182C188.081 169.612 187.424 169.158 186.697 168.848C185.969 168.538 185.186 168.378 184.395 168.378C183.604 168.378 182.821 168.538 182.093 168.848C181.365 169.158 180.708 169.612 180.161 170.182C179.045 171.481 178.464 173.155 178.535 174.864C178.473 176.573 179.053 178.243 180.161 179.546Z" fill="white"/>
<path d="M184.947 163.113C186.557 163.049 188.163 163.309 189.67 163.877C191.178 164.445 192.555 165.309 193.721 166.418C195.89 168.74 197.097 171.797 197.097 174.971C197.097 178.146 195.89 181.202 193.721 183.525C192.561 184.644 191.185 185.516 189.677 186.09C188.169 186.663 186.56 186.925 184.947 186.86C182.65 186.911 180.399 186.213 178.535 184.871V195.919C178.535 196.5 178.229 196.776 177.646 196.776H172.492C172.374 196.798 172.253 196.791 172.139 196.755C172.024 196.72 171.921 196.658 171.836 196.573C171.751 196.489 171.689 196.385 171.653 196.271C171.618 196.157 171.611 196.036 171.633 195.919V170.825C171.669 170.579 171.647 170.329 171.569 170.093C171.491 169.858 171.358 169.644 171.182 169.468C171.007 169.293 170.792 169.161 170.556 169.083C170.32 169.005 170.069 168.983 169.823 169.019H168.81C168.136 169.019 167.798 168.774 167.798 168.285V164.674C167.782 164.45 167.843 164.228 167.972 164.044C168.1 163.86 168.288 163.726 168.504 163.664C169.565 163.279 170.688 163.092 171.817 163.113C172.943 163.013 174.073 163.252 175.062 163.797C176.051 164.342 176.855 165.169 177.37 166.173C178.358 165.176 179.539 164.39 180.842 163.864C182.145 163.338 183.542 163.082 184.947 163.113ZM180.161 179.546C180.708 180.117 181.365 180.571 182.093 180.881C182.821 181.191 183.604 181.351 184.395 181.351C185.186 181.351 185.969 181.191 186.697 180.881C187.424 180.571 188.081 180.117 188.629 179.546C189.781 178.265 190.386 176.585 190.316 174.864C190.396 173.142 189.789 171.459 188.629 170.182C188.081 169.612 187.424 169.158 186.697 168.848C185.969 168.538 185.186 168.378 184.395 168.378C183.604 168.378 182.821 168.538 182.093 168.848C181.365 169.158 180.708 169.612 180.161 170.182C179.045 171.481 178.464 173.155 178.535 174.864C178.473 176.573 179.053 178.243 180.161 179.546Z" stroke="#0E3278" stroke-width="2" mask="url(#path-8-outside-6)"/>
</g>
<g id="Vector_9">
<mask id="path-9-outside-7" maskUnits="userSpaceOnUse" x="199.133" y="161.975" width="25" height="26" fill="black">
<rect fill="white" x="199.133" y="161.975" width="25" height="26"/>
<path d="M211.576 186.86C208.822 186.973 206.091 186.316 203.691 184.963C202.729 184.385 201.909 183.597 201.293 182.66C200.677 181.722 200.28 180.658 200.133 179.546C200.133 178.934 200.348 178.628 201.022 178.628H205.532C205.747 178.637 205.955 178.704 206.133 178.823C206.312 178.942 206.454 179.107 206.545 179.302C207.189 180.954 208.876 181.78 211.576 181.78C212.517 181.823 213.455 181.634 214.306 181.23C214.6 181.097 214.852 180.888 215.036 180.624C215.219 180.36 215.328 180.051 215.349 179.73C215.349 178.934 214.858 178.384 213.877 178.016C212.712 177.63 211.508 177.373 210.287 177.251C208.841 177.088 207.406 176.832 205.992 176.486C204.617 176.176 203.367 175.462 202.403 174.436C201.835 173.739 201.417 172.932 201.175 172.067C200.933 171.202 200.872 170.296 200.995 169.406C201.119 168.517 201.425 167.662 201.894 166.895C202.363 166.128 202.986 165.466 203.722 164.949C205.933 163.544 208.528 162.859 211.146 162.99C213.681 162.905 216.19 163.53 218.386 164.796C219.272 165.296 220.034 165.987 220.618 166.818C221.201 167.649 221.592 168.6 221.761 169.601C221.761 170.213 221.485 170.519 220.933 170.519H216.392C216.201 170.53 216.011 170.483 215.847 170.385C215.683 170.287 215.552 170.141 215.472 169.968C215.169 169.243 214.597 168.662 213.877 168.346C213.064 167.922 212.156 167.711 211.238 167.734C210.339 167.685 209.442 167.864 208.631 168.254C208.345 168.364 208.099 168.557 207.924 168.808C207.749 169.059 207.653 169.356 207.649 169.662C207.669 170.08 207.822 170.481 208.087 170.806C208.352 171.131 208.715 171.363 209.122 171.467C210.3 171.91 211.524 172.218 212.772 172.385C214.207 172.574 215.63 172.839 217.036 173.181C218.411 173.492 219.662 174.206 220.626 175.231C221.142 175.797 221.54 176.458 221.798 177.178C222.056 177.897 222.169 178.661 222.129 179.424C222.156 180.482 221.907 181.529 221.407 182.462C220.906 183.395 220.172 184.183 219.276 184.749C216.984 186.217 214.298 186.953 211.576 186.86Z"/>
</mask>
<path d="M211.576 186.86C208.822 186.973 206.091 186.316 203.691 184.963C202.729 184.385 201.909 183.597 201.293 182.66C200.677 181.722 200.28 180.658 200.133 179.546C200.133 178.934 200.348 178.628 201.022 178.628H205.532C205.747 178.637 205.955 178.704 206.133 178.823C206.312 178.942 206.454 179.107 206.545 179.302C207.189 180.954 208.876 181.78 211.576 181.78C212.517 181.823 213.455 181.634 214.306 181.23C214.6 181.097 214.852 180.888 215.036 180.624C215.219 180.36 215.328 180.051 215.349 179.73C215.349 178.934 214.858 178.384 213.877 178.016C212.712 177.63 211.508 177.373 210.287 177.251C208.841 177.088 207.406 176.832 205.992 176.486C204.617 176.176 203.367 175.462 202.403 174.436C201.835 173.739 201.417 172.932 201.175 172.067C200.933 171.202 200.872 170.296 200.995 169.406C201.119 168.517 201.425 167.662 201.894 166.895C202.363 166.128 202.986 165.466 203.722 164.949C205.933 163.544 208.528 162.859 211.146 162.99C213.681 162.905 216.19 163.53 218.386 164.796C219.272 165.296 220.034 165.987 220.618 166.818C221.201 167.649 221.592 168.6 221.761 169.601C221.761 170.213 221.485 170.519 220.933 170.519H216.392C216.201 170.53 216.011 170.483 215.847 170.385C215.683 170.287 215.552 170.141 215.472 169.968C215.169 169.243 214.597 168.662 213.877 168.346C213.064 167.922 212.156 167.711 211.238 167.734C210.339 167.685 209.442 167.864 208.631 168.254C208.345 168.364 208.099 168.557 207.924 168.808C207.749 169.059 207.653 169.356 207.649 169.662C207.669 170.08 207.822 170.481 208.087 170.806C208.352 171.131 208.715 171.363 209.122 171.467C210.3 171.91 211.524 172.218 212.772 172.385C214.207 172.574 215.63 172.839 217.036 173.181C218.411 173.492 219.662 174.206 220.626 175.231C221.142 175.797 221.54 176.458 221.798 177.178C222.056 177.897 222.169 178.661 222.129 179.424C222.156 180.482 221.907 181.529 221.407 182.462C220.906 183.395 220.172 184.183 219.276 184.749C216.984 186.217 214.298 186.953 211.576 186.86Z" fill="white"/>
<path d="M211.576 186.86C208.822 186.973 206.091 186.316 203.691 184.963C202.729 184.385 201.909 183.597 201.293 182.66C200.677 181.722 200.28 180.658 200.133 179.546C200.133 178.934 200.348 178.628 201.022 178.628H205.532C205.747 178.637 205.955 178.704 206.133 178.823C206.312 178.942 206.454 179.107 206.545 179.302C207.189 180.954 208.876 181.78 211.576 181.78C212.517 181.823 213.455 181.634 214.306 181.23C214.6 181.097 214.852 180.888 215.036 180.624C215.219 180.36 215.328 180.051 215.349 179.73C215.349 178.934 214.858 178.384 213.877 178.016C212.712 177.63 211.508 177.373 210.287 177.251C208.841 177.088 207.406 176.832 205.992 176.486C204.617 176.176 203.367 175.462 202.403 174.436C201.835 173.739 201.417 172.932 201.175 172.067C200.933 171.202 200.872 170.296 200.995 169.406C201.119 168.517 201.425 167.662 201.894 166.895C202.363 166.128 202.986 165.466 203.722 164.949C205.933 163.544 208.528 162.859 211.146 162.99C213.681 162.905 216.19 163.53 218.386 164.796C219.272 165.296 220.034 165.987 220.618 166.818C221.201 167.649 221.592 168.6 221.761 169.601C221.761 170.213 221.485 170.519 220.933 170.519H216.392C216.201 170.53 216.011 170.483 215.847 170.385C215.683 170.287 215.552 170.141 215.472 169.968C215.169 169.243 214.597 168.662 213.877 168.346C213.064 167.922 212.156 167.711 211.238 167.734C210.339 167.685 209.442 167.864 208.631 168.254C208.345 168.364 208.099 168.557 207.924 168.808C207.749 169.059 207.653 169.356 207.649 169.662C207.669 170.08 207.822 170.481 208.087 170.806C208.352 171.131 208.715 171.363 209.122 171.467C210.3 171.91 211.524 172.218 212.772 172.385C214.207 172.574 215.63 172.839 217.036 173.181C218.411 173.492 219.662 174.206 220.626 175.231C221.142 175.797 221.54 176.458 221.798 177.178C222.056 177.897 222.169 178.661 222.129 179.424C222.156 180.482 221.907 181.529 221.407 182.462C220.906 183.395 220.172 184.183 219.276 184.749C216.984 186.217 214.298 186.953 211.576 186.86Z" stroke="#0E3278" stroke-width="2" mask="url(#path-9-outside-7)"/>
</g>
<g id="Vector_10">
<mask id="path-10-outside-8" maskUnits="userSpaceOnUse" x="225.504" y="162.847" width="31" height="26" fill="black">
<rect fill="white" x="225.504" y="162.847" width="31" height="26"/>
<path d="M254.556 185.33C254.573 185.439 254.569 185.55 254.542 185.657C254.516 185.764 254.469 185.864 254.403 185.953C254.337 186.041 254.255 186.115 254.16 186.171C254.065 186.228 253.96 186.264 253.85 186.279C252.73 186.644 251.562 186.84 250.384 186.86C249.218 186.981 248.04 186.799 246.965 186.333C245.891 185.866 244.955 185.131 244.248 184.198C242.081 186.057 239.279 187.01 236.425 186.86C235.1 186.921 233.777 186.705 232.54 186.225C231.304 185.746 230.182 185.014 229.246 184.076C228.317 183.093 227.596 181.933 227.127 180.666C226.658 179.398 226.45 178.05 226.516 176.7V164.735C226.516 164.153 226.792 163.847 227.375 163.847H232.529C233.112 163.847 233.388 164.153 233.388 164.735V175.782C233.332 177.159 233.804 178.505 234.707 179.546C235.158 180.024 235.706 180.399 236.315 180.647C236.923 180.895 237.578 181.01 238.235 180.985C238.907 181.014 239.579 180.91 240.211 180.679C240.843 180.448 241.422 180.094 241.916 179.638C242.384 179.158 242.748 178.587 242.985 177.96C243.223 177.334 243.329 176.665 243.297 175.997V164.735C243.297 164.153 243.573 163.847 244.156 163.847H249.371C249.954 163.847 250.23 164.153 250.23 164.735V179.149C250.23 180.342 250.752 180.924 251.764 180.924C252.24 180.942 252.715 180.89 253.175 180.771C253.291 180.738 253.413 180.732 253.532 180.753C253.65 180.775 253.762 180.822 253.86 180.893C253.957 180.964 254.037 181.056 254.094 181.162C254.151 181.268 254.183 181.385 254.188 181.505L254.556 185.33Z"/>
</mask>
<path d="M254.556 185.33C254.573 185.439 254.569 185.55 254.542 185.657C254.516 185.764 254.469 185.864 254.403 185.953C254.337 186.041 254.255 186.115 254.16 186.171C254.065 186.228 253.96 186.264 253.85 186.279C252.73 186.644 251.562 186.84 250.384 186.86C249.218 186.981 248.04 186.799 246.965 186.333C245.891 185.866 244.955 185.131 244.248 184.198C242.081 186.057 239.279 187.01 236.425 186.86C235.1 186.921 233.777 186.705 232.54 186.225C231.304 185.746 230.182 185.014 229.246 184.076C228.317 183.093 227.596 181.933 227.127 180.666C226.658 179.398 226.45 178.05 226.516 176.7V164.735C226.516 164.153 226.792 163.847 227.375 163.847H232.529C233.112 163.847 233.388 164.153 233.388 164.735V175.782C233.332 177.159 233.804 178.505 234.707 179.546C235.158 180.024 235.706 180.399 236.315 180.647C236.923 180.895 237.578 181.01 238.235 180.985C238.907 181.014 239.579 180.91 240.211 180.679C240.843 180.448 241.422 180.094 241.916 179.638C242.384 179.158 242.748 178.587 242.985 177.96C243.223 177.334 243.329 176.665 243.297 175.997V164.735C243.297 164.153 243.573 163.847 244.156 163.847H249.371C249.954 163.847 250.23 164.153 250.23 164.735V179.149C250.23 180.342 250.752 180.924 251.764 180.924C252.24 180.942 252.715 180.89 253.175 180.771C253.291 180.738 253.413 180.732 253.532 180.753C253.65 180.775 253.762 180.822 253.86 180.893C253.957 180.964 254.037 181.056 254.094 181.162C254.151 181.268 254.183 181.385 254.188 181.505L254.556 185.33Z" fill="white"/>
<path d="M254.556 185.33C254.573 185.439 254.569 185.55 254.542 185.657C254.516 185.764 254.469 185.864 254.403 185.953C254.337 186.041 254.255 186.115 254.16 186.171C254.065 186.228 253.96 186.264 253.85 186.279C252.73 186.644 251.562 186.84 250.384 186.86C249.218 186.981 248.04 186.799 246.965 186.333C245.891 185.866 244.955 185.131 244.248 184.198C242.081 186.057 239.279 187.01 236.425 186.86C235.1 186.921 233.777 186.705 232.54 186.225C231.304 185.746 230.182 185.014 229.246 184.076C228.317 183.093 227.596 181.933 227.127 180.666C226.658 179.398 226.45 178.05 226.516 176.7V164.735C226.516 164.153 226.792 163.847 227.375 163.847H232.529C233.112 163.847 233.388 164.153 233.388 164.735V175.782C233.332 177.159 233.804 178.505 234.707 179.546C235.158 180.024 235.706 180.399 236.315 180.647C236.923 180.895 237.578 181.01 238.235 180.985C238.907 181.014 239.579 180.91 240.211 180.679C240.843 180.448 241.422 180.094 241.916 179.638C242.384 179.158 242.748 178.587 242.985 177.96C243.223 177.334 243.329 176.665 243.297 175.997V164.735C243.297 164.153 243.573 163.847 244.156 163.847H249.371C249.954 163.847 250.23 164.153 250.23 164.735V179.149C250.23 180.342 250.752 180.924 251.764 180.924C252.24 180.942 252.715 180.89 253.175 180.771C253.291 180.738 253.413 180.732 253.532 180.753C253.65 180.775 253.762 180.822 253.86 180.893C253.957 180.964 254.037 181.056 254.094 181.162C254.151 181.268 254.183 181.385 254.188 181.505L254.556 185.33Z" stroke="#0E3278" stroke-width="2" mask="url(#path-10-outside-8)"/>
</g>
<g id="Vector_11">
<mask id="path-11-outside-9" maskUnits="userSpaceOnUse" x="255.517" y="162.092" width="49" height="26" fill="black">
<rect fill="white" x="255.517" y="162.092" width="49" height="26"/>
<path d="M303.303 185.33C303.331 185.44 303.333 185.554 303.311 185.665C303.289 185.776 303.243 185.88 303.175 185.971C303.108 186.061 303.021 186.136 302.921 186.189C302.821 186.243 302.711 186.273 302.598 186.279C301.458 186.649 300.268 186.845 299.07 186.86C297.246 186.954 295.442 186.437 293.947 185.392C293.3 184.944 292.774 184.343 292.415 183.644C292.057 182.945 291.877 182.168 291.891 181.383V174.191C291.956 172.819 291.495 171.473 290.603 170.427C290.172 169.949 289.641 169.571 289.047 169.323C288.452 169.074 287.81 168.96 287.167 168.989C286.587 168.967 286.009 169.077 285.478 169.31C284.946 169.543 284.475 169.894 284.099 170.335C283.289 171.361 282.875 172.642 282.933 173.946V185.239C282.933 185.82 282.657 186.126 282.074 186.126H276.89C276.769 186.141 276.647 186.128 276.532 186.089C276.417 186.05 276.313 185.985 276.227 185.899C276.142 185.813 276.077 185.709 276.037 185.595C275.998 185.481 275.985 185.359 276 185.239V174.191C276.067 172.834 275.642 171.498 274.803 170.427C274.429 169.977 273.961 169.615 273.43 169.366C272.9 169.118 272.321 168.989 271.736 168.989C271.11 168.963 270.486 169.07 269.904 169.302C269.323 169.534 268.797 169.886 268.361 170.335C267.484 171.328 267.032 172.625 267.103 173.946V185.239C267.118 185.359 267.105 185.481 267.066 185.595C267.027 185.709 266.961 185.813 266.876 185.899C266.79 185.985 266.686 186.05 266.571 186.089C266.456 186.128 266.334 186.141 266.214 186.126H261.213C260.63 186.126 260.354 185.82 260.354 185.239V170.825C260.39 170.579 260.368 170.329 260.29 170.093C260.212 169.858 260.08 169.644 259.904 169.468C259.728 169.293 259.513 169.161 259.277 169.083C259.041 169.005 258.79 168.983 258.544 169.019H257.532C256.857 169.019 256.519 168.774 256.519 168.285V164.674C256.503 164.45 256.565 164.228 256.693 164.044C256.822 163.86 257.009 163.726 257.225 163.664C258.286 163.279 259.409 163.092 260.538 163.113C261.622 163.021 262.71 163.236 263.676 163.734C264.642 164.233 265.447 164.993 265.999 165.928C267.034 164.95 268.26 164.195 269.601 163.71C270.941 163.226 272.368 163.022 273.791 163.113C275.173 163.046 276.552 163.304 277.815 163.868C279.078 164.431 280.191 165.284 281.062 166.357C282.077 165.256 283.325 164.394 284.715 163.833C286.105 163.272 287.602 163.026 289.099 163.113C290.439 163.05 291.776 163.266 293.028 163.745C294.279 164.224 295.417 164.957 296.37 165.898C297.302 166.878 298.025 168.038 298.494 169.306C298.964 170.574 299.17 171.923 299.101 173.273V179.179C299.101 180.342 299.622 180.924 300.604 180.924C301.079 180.946 301.555 180.894 302.015 180.771C302.649 180.771 302.986 181.015 303.027 181.505L303.303 185.33Z"/>
</mask>
<path d="M303.303 185.33C303.331 185.44 303.333 185.554 303.311 185.665C303.289 185.776 303.243 185.88 303.175 185.971C303.108 186.061 303.021 186.136 302.921 186.189C302.821 186.243 302.711 186.273 302.598 186.279C301.458 186.649 300.268 186.845 299.07 186.86C297.246 186.954 295.442 186.437 293.947 185.392C293.3 184.944 292.774 184.343 292.415 183.644C292.057 182.945 291.877 182.168 291.891 181.383V174.191C291.956 172.819 291.495 171.473 290.603 170.427C290.172 169.949 289.641 169.571 289.047 169.323C288.452 169.074 287.81 168.96 287.167 168.989C286.587 168.967 286.009 169.077 285.478 169.31C284.946 169.543 284.475 169.894 284.099 170.335C283.289 171.361 282.875 172.642 282.933 173.946V185.239C282.933 185.82 282.657 186.126 282.074 186.126H276.89C276.769 186.141 276.647 186.128 276.532 186.089C276.417 186.05 276.313 185.985 276.227 185.899C276.142 185.813 276.077 185.709 276.037 185.595C275.998 185.481 275.985 185.359 276 185.239V174.191C276.067 172.834 275.642 171.498 274.803 170.427C274.429 169.977 273.961 169.615 273.43 169.366C272.9 169.118 272.321 168.989 271.736 168.989C271.11 168.963 270.486 169.07 269.904 169.302C269.323 169.534 268.797 169.886 268.361 170.335C267.484 171.328 267.032 172.625 267.103 173.946V185.239C267.118 185.359 267.105 185.481 267.066 185.595C267.027 185.709 266.961 185.813 266.876 185.899C266.79 185.985 266.686 186.05 266.571 186.089C266.456 186.128 266.334 186.141 266.214 186.126H261.213C260.63 186.126 260.354 185.82 260.354 185.239V170.825C260.39 170.579 260.368 170.329 260.29 170.093C260.212 169.858 260.08 169.644 259.904 169.468C259.728 169.293 259.513 169.161 259.277 169.083C259.041 169.005 258.79 168.983 258.544 169.019H257.532C256.857 169.019 256.519 168.774 256.519 168.285V164.674C256.503 164.45 256.565 164.228 256.693 164.044C256.822 163.86 257.009 163.726 257.225 163.664C258.286 163.279 259.409 163.092 260.538 163.113C261.622 163.021 262.71 163.236 263.676 163.734C264.642 164.233 265.447 164.993 265.999 165.928C267.034 164.95 268.26 164.195 269.601 163.71C270.941 163.226 272.368 163.022 273.791 163.113C275.173 163.046 276.552 163.304 277.815 163.868C279.078 164.431 280.191 165.284 281.062 166.357C282.077 165.256 283.325 164.394 284.715 163.833C286.105 163.272 287.602 163.026 289.099 163.113C290.439 163.05 291.776 163.266 293.028 163.745C294.279 164.224 295.417 164.957 296.37 165.898C297.302 166.878 298.025 168.038 298.494 169.306C298.964 170.574 299.17 171.923 299.101 173.273V179.179C299.101 180.342 299.622 180.924 300.604 180.924C301.079 180.946 301.555 180.894 302.015 180.771C302.649 180.771 302.986 181.015 303.027 181.505L303.303 185.33Z" fill="white"/>
<path d="M303.303 185.33C303.331 185.44 303.333 185.554 303.311 185.665C303.289 185.776 303.243 185.88 303.175 185.971C303.108 186.061 303.021 186.136 302.921 186.189C302.821 186.243 302.711 186.273 302.598 186.279C301.458 186.649 300.268 186.845 299.07 186.86C297.246 186.954 295.442 186.437 293.947 185.392C293.3 184.944 292.774 184.343 292.415 183.644C292.057 182.945 291.877 182.168 291.891 181.383V174.191C291.956 172.819 291.495 171.473 290.603 170.427C290.172 169.949 289.641 169.571 289.047 169.323C288.452 169.074 287.81 168.96 287.167 168.989C286.587 168.967 286.009 169.077 285.478 169.31C284.946 169.543 284.475 169.894 284.099 170.335C283.289 171.361 282.875 172.642 282.933 173.946V185.239C282.933 185.82 282.657 186.126 282.074 186.126H276.89C276.769 186.141 276.647 186.128 276.532 186.089C276.417 186.05 276.313 185.985 276.227 185.899C276.142 185.813 276.077 185.709 276.037 185.595C275.998 185.481 275.985 185.359 276 185.239V174.191C276.067 172.834 275.642 171.498 274.803 170.427C274.429 169.977 273.961 169.615 273.43 169.366C272.9 169.118 272.321 168.989 271.736 168.989C271.11 168.963 270.486 169.07 269.904 169.302C269.323 169.534 268.797 169.886 268.361 170.335C267.484 171.328 267.032 172.625 267.103 173.946V185.239C267.118 185.359 267.105 185.481 267.066 185.595C267.027 185.709 266.961 185.813 266.876 185.899C266.79 185.985 266.686 186.05 266.571 186.089C266.456 186.128 266.334 186.141 266.214 186.126H261.213C260.63 186.126 260.354 185.82 260.354 185.239V170.825C260.39 170.579 260.368 170.329 260.29 170.093C260.212 169.858 260.08 169.644 259.904 169.468C259.728 169.293 259.513 169.161 259.277 169.083C259.041 169.005 258.79 168.983 258.544 169.019H257.532C256.857 169.019 256.519 168.774 256.519 168.285V164.674C256.503 164.45 256.565 164.228 256.693 164.044C256.822 163.86 257.009 163.726 257.225 163.664C258.286 163.279 259.409 163.092 260.538 163.113C261.622 163.021 262.71 163.236 263.676 163.734C264.642 164.233 265.447 164.993 265.999 165.928C267.034 164.95 268.26 164.195 269.601 163.71C270.941 163.226 272.368 163.022 273.791 163.113C275.173 163.046 276.552 163.304 277.815 163.868C279.078 164.431 280.191 165.284 281.062 166.357C282.077 165.256 283.325 164.394 284.715 163.833C286.105 163.272 287.602 163.026 289.099 163.113C290.439 163.05 291.776 163.266 293.028 163.745C294.279 164.224 295.417 164.957 296.37 165.898C297.302 166.878 298.025 168.038 298.494 169.306C298.964 170.574 299.17 171.923 299.101 173.273V179.179C299.101 180.342 299.622 180.924 300.604 180.924C301.079 180.946 301.555 180.894 302.015 180.771C302.649 180.771 302.986 181.015 303.027 181.505L303.303 185.33Z" stroke="#0E3278" stroke-width="2" mask="url(#path-11-outside-9)"/>
</g>
</g>
<g id="Vector_12">
<mask id="path-12-outside-10" maskUnits="userSpaceOnUse" x="148.646" y="67.2409" width="57" height="51" fill="black">
<rect fill="white" x="148.646" y="67.2409" width="57" height="51"/>
<path d="M150.456 89.4976C151.915 83.4278 155.294 78.0378 160.054 74.1857C164.814 70.3336 170.682 68.2409 176.724 68.2409C182.766 68.2409 188.635 70.3336 193.395 74.1857C198.155 78.0378 201.534 83.4278 202.992 89.4976H200.62C196.617 89.4366 192.697 90.675 189.409 93.0388C189.219 93.181 189.021 93.3109 188.815 93.4277H188.539C188.333 93.3109 188.135 93.181 187.945 93.0388C184.628 90.7297 180.722 89.4964 176.724 89.4964C172.727 89.4964 168.821 90.7297 165.503 93.0388C165.314 93.181 165.116 93.3109 164.91 93.4277H164.633C164.428 93.3109 164.23 93.181 164.04 93.0388C160.752 90.675 156.832 89.4366 152.829 89.4976H150.456ZM196.349 102.332C197.567 101.35 199.076 100.836 200.62 100.878H203.803V94.3079H200.62C197.901 94.2738 195.245 95.1497 193.047 96.8051C191.81 97.7493 190.313 98.2587 188.776 98.2587C187.239 98.2587 185.742 97.7493 184.505 96.8051C182.251 95.1806 179.57 94.3098 176.823 94.3098C174.077 94.3098 171.396 95.1806 169.142 96.8051C167.904 97.7493 166.408 98.2587 164.871 98.2587C163.334 98.2587 161.837 97.7493 160.6 96.8051C158.374 95.1285 155.68 94.2515 152.928 94.3079H149.646V100.878H152.829C154.372 100.836 155.882 101.35 157.1 102.332C159.35 103.957 162.028 104.829 164.772 104.829C167.516 104.829 170.193 103.957 172.444 102.332C173.663 101.353 175.172 100.84 176.715 100.878C178.258 100.833 179.769 101.347 180.985 102.332C183.24 103.956 185.92 104.827 188.667 104.827C191.414 104.827 194.095 103.956 196.349 102.332ZM196.349 114.081C197.567 113.099 199.076 112.585 200.62 112.628H203.803V106.057H200.62C197.901 106.023 195.245 106.899 193.047 108.554C191.81 109.499 190.313 110.008 188.776 110.008C187.239 110.008 185.742 109.499 184.505 108.554C182.251 106.93 179.57 106.059 176.823 106.059C174.077 106.059 171.396 106.93 169.142 108.554C167.904 109.499 166.408 110.008 164.871 110.008C163.334 110.008 161.837 109.499 160.6 108.554C158.374 106.878 155.68 106.001 152.928 106.057H149.646V112.628H152.829C154.372 112.585 155.882 113.099 157.1 114.081C159.35 115.707 162.028 116.578 164.772 116.578C167.516 116.578 170.193 115.707 172.444 114.081C173.663 113.102 175.172 112.589 176.715 112.628C178.258 112.582 179.769 113.096 180.985 114.081C183.24 115.706 185.92 116.576 188.667 116.576C191.414 116.576 194.095 115.706 196.349 114.081Z"/>
</mask>
<path d="M150.456 89.4976C151.915 83.4278 155.294 78.0378 160.054 74.1857C164.814 70.3336 170.682 68.2409 176.724 68.2409C182.766 68.2409 188.635 70.3336 193.395 74.1857C198.155 78.0378 201.534 83.4278 202.992 89.4976H200.62C196.617 89.4366 192.697 90.675 189.409 93.0388C189.219 93.181 189.021 93.3109 188.815 93.4277H188.539C188.333 93.3109 188.135 93.181 187.945 93.0388C184.628 90.7297 180.722 89.4964 176.724 89.4964C172.727 89.4964 168.821 90.7297 165.503 93.0388C165.314 93.181 165.116 93.3109 164.91 93.4277H164.633C164.428 93.3109 164.23 93.181 164.04 93.0388C160.752 90.675 156.832 89.4366 152.829 89.4976H150.456ZM196.349 102.332C197.567 101.35 199.076 100.836 200.62 100.878H203.803V94.3079H200.62C197.901 94.2738 195.245 95.1497 193.047 96.8051C191.81 97.7493 190.313 98.2587 188.776 98.2587C187.239 98.2587 185.742 97.7493 184.505 96.8051C182.251 95.1806 179.57 94.3098 176.823 94.3098C174.077 94.3098 171.396 95.1806 169.142 96.8051C167.904 97.7493 166.408 98.2587 164.871 98.2587C163.334 98.2587 161.837 97.7493 160.6 96.8051C158.374 95.1285 155.68 94.2515 152.928 94.3079H149.646V100.878H152.829C154.372 100.836 155.882 101.35 157.1 102.332C159.35 103.957 162.028 104.829 164.772 104.829C167.516 104.829 170.193 103.957 172.444 102.332C173.663 101.353 175.172 100.84 176.715 100.878C178.258 100.833 179.769 101.347 180.985 102.332C183.24 103.956 185.92 104.827 188.667 104.827C191.414 104.827 194.095 103.956 196.349 102.332ZM196.349 114.081C197.567 113.099 199.076 112.585 200.62 112.628H203.803V106.057H200.62C197.901 106.023 195.245 106.899 193.047 108.554C191.81 109.499 190.313 110.008 188.776 110.008C187.239 110.008 185.742 109.499 184.505 108.554C182.251 106.93 179.57 106.059 176.823 106.059C174.077 106.059 171.396 106.93 169.142 108.554C167.904 109.499 166.408 110.008 164.871 110.008C163.334 110.008 161.837 109.499 160.6 108.554C158.374 106.878 155.68 106.001 152.928 106.057H149.646V112.628H152.829C154.372 112.585 155.882 113.099 157.1 114.081C159.35 115.707 162.028 116.578 164.772 116.578C167.516 116.578 170.193 115.707 172.444 114.081C173.663 113.102 175.172 112.589 176.715 112.628C178.258 112.582 179.769 113.096 180.985 114.081C183.24 115.706 185.92 116.576 188.667 116.576C191.414 116.576 194.095 115.706 196.349 114.081Z" fill="white"/>
<path d="M150.456 89.4976C151.915 83.4278 155.294 78.0378 160.054 74.1857C164.814 70.3336 170.682 68.2409 176.724 68.2409C182.766 68.2409 188.635 70.3336 193.395 74.1857C198.155 78.0378 201.534 83.4278 202.992 89.4976H200.62C196.617 89.4366 192.697 90.675 189.409 93.0388C189.219 93.181 189.021 93.3109 188.815 93.4277H188.539C188.333 93.3109 188.135 93.181 187.945 93.0388C184.628 90.7297 180.722 89.4964 176.724 89.4964C172.727 89.4964 168.821 90.7297 165.503 93.0388C165.314 93.181 165.116 93.3109 164.91 93.4277H164.633C164.428 93.3109 164.23 93.181 164.04 93.0388C160.752 90.675 156.832 89.4366 152.829 89.4976H150.456ZM196.349 102.332C197.567 101.35 199.076 100.836 200.62 100.878H203.803V94.3079H200.62C197.901 94.2738 195.245 95.1497 193.047 96.8051C191.81 97.7493 190.313 98.2587 188.776 98.2587C187.239 98.2587 185.742 97.7493 184.505 96.8051C182.251 95.1806 179.57 94.3098 176.823 94.3098C174.077 94.3098 171.396 95.1806 169.142 96.8051C167.904 97.7493 166.408 98.2587 164.871 98.2587C163.334 98.2587 161.837 97.7493 160.6 96.8051C158.374 95.1285 155.68 94.2515 152.928 94.3079H149.646V100.878H152.829C154.372 100.836 155.882 101.35 157.1 102.332C159.35 103.957 162.028 104.829 164.772 104.829C167.516 104.829 170.193 103.957 172.444 102.332C173.663 101.353 175.172 100.84 176.715 100.878C178.258 100.833 179.769 101.347 180.985 102.332C183.24 103.956 185.92 104.827 188.667 104.827C191.414 104.827 194.095 103.956 196.349 102.332ZM196.349 114.081C197.567 113.099 199.076 112.585 200.62 112.628H203.803V106.057H200.62C197.901 106.023 195.245 106.899 193.047 108.554C191.81 109.499 190.313 110.008 188.776 110.008C187.239 110.008 185.742 109.499 184.505 108.554C182.251 106.93 179.57 106.059 176.823 106.059C174.077 106.059 171.396 106.93 169.142 108.554C167.904 109.499 166.408 110.008 164.871 110.008C163.334 110.008 161.837 109.499 160.6 108.554C158.374 106.878 155.68 106.001 152.928 106.057H149.646V112.628H152.829C154.372 112.585 155.882 113.099 157.1 114.081C159.35 115.707 162.028 116.578 164.772 116.578C167.516 116.578 170.193 115.707 172.444 114.081C173.663 113.102 175.172 112.589 176.715 112.628C178.258 112.582 179.769 113.096 180.985 114.081C183.24 115.706 185.92 116.576 188.667 116.576C191.414 116.576 194.095 115.706 196.349 114.081Z" stroke="#0E3278" stroke-width="2" mask="url(#path-12-outside-10)"/>
</g>
</g>
</g>
</g>
<defs>
<radialGradient id="paint0_radial" cx="0" cy="0" r="1" gradientUnits="userSpaceOnUse" gradientTransform="translate(177.071 92.7534) scale(43.4316 43.259)">
<stop stop-color="#69ADE5"/>
<stop offset="1" stop-color="#0062A4"/>
</radialGradient>
</defs>
</svg>
